<svg width="852" height="940" viewBox="0 0 852 940" fill="none" xmlns="http://www.w3.org/2000/svg">
<path d="M592.21 821.15C592.04 821.07 592.12 819.52 591.38 819.34C588.68 818.66 563.99 828.97 558.82 830.65C530.39 839.85 505.57 840.95 480.13 857.96C456.52 873.74 437.24 894.62 429.91 922.74C428.63 927.65 428.45 933.33 427.07 937.91C426.63 939.36 427.63 939.65 425.05 939.37C421.44 898.95 393.18 868.46 358.72 850.19C342.17 841.42 321.27 839.29 303.05 833.86C288.81 829.62 274.87 823.51 260.83 819.55C259.81 819.82 258.88 821.44 257.69 821.26C256.88 821.13 246.53 812.86 244.37 811.54C224.12 799.19 203.78 790.08 183.73 776.18C-18.82 635.79 -61.41 352.76 93.64 159.47C239.7 -22.6301 504.57 -53.3401 688.93 90.9699C913.04 266.39 903.86 608.6 672.35 773.18C646.75 791.38 619.19 803.77 593.45 821.3L592.21 821.15ZM416.03 239.36C414.17 181.32 381.1 133.02 332.96 102.94C328.62 100.23 316.62 92.5999 312.52 91.3799C311.19 90.9799 310.64 91.5199 311.05 92.8499C312.03 96.0299 317.78 101.76 319.85 105.06C332.19 124.83 341.93 147.71 344.9 171.01C346.23 181.44 345.87 191.93 347.04 202.36C345.31 202.81 345.04 201.64 344.04 200.87C340.18 197.91 336.14 193.31 331.94 189.97C285.12 152.61 224.56 131.82 165.04 149.38C164.74 151.78 165.01 150.97 166.43 151.48C170.99 153.11 177.06 153.43 182.04 154.88C221.99 166.45 256.18 191.29 278.05 226.87C278.54 227.66 279.48 227.83 279.05 229.36C197.15 257.5 141.2 330.99 114.02 410.84C111.78 417.42 103.83 441.49 104.03 446.86C104.05 447.53 103.74 448.51 104.55 448.37C129.39 428.72 155.63 408.92 187.05 401.38L163.18 440C139.38 488.58 130.89 542.33 136.78 596.19C136.92 597.5 135.24 601.53 138.57 599.4C146.7 576.52 158.49 548.95 175.08 530.91C176.2 529.69 177.09 528.05 179.05 528.39C166.83 598.87 176.7 675.45 211.88 738.05C216.13 745.62 221.14 754.19 227.04 760.38C224.89 753.77 234.26 694.43 238.55 694.4C242.68 705.29 244.84 716.84 249.29 727.64C281.03 804.69 371.7 815.27 421.03 873.9C423 876.24 423.49 879.29 426.57 880.32C476.46 813.94 574.86 806.5 605.07 721.9C608.45 712.42 609.89 702.53 613.56 693.39C620.8 713.18 624.07 734.74 624.96 755.78C625.02 757.23 623.68 759.16 624.04 760.87L626.03 761.37C636.19 744.54 646.59 728.3 654.23 710.06C675.96 658.18 681.07 602.68 676.04 546.89C675.45 540.37 674.17 533.82 673.05 527.39C675.61 527.74 677.9 531.51 679.46 533.47C696.74 555.25 701.38 573.61 712.77 597.16C713.34 598.34 713.3 600.12 715.04 600.38C714.21 591.89 716.72 583.24 717.09 574.92C719.45 522.29 705.5 464.15 677.08 419.85C675.64 417.61 663.8 402.61 665.06 401.38C688.48 407.07 708.98 419.83 728.37 433.56C733.74 437.36 739.38 442.94 744.75 446.18C745.62 446.71 747.34 448.34 748.07 446.86C728.7 366.06 682.8 285.51 608.08 244.85C596.77 238.69 584.73 234.23 573.06 228.85C598.12 187.27 639.2 159.37 687.06 150.87C681.32 147.07 672.18 145.7 665.27 144.66C618.93 137.65 573.82 152.83 535.75 178.56C525.01 185.82 515.35 194.53 505.07 202.37C506.34 191.61 505.75 180.77 507.2 170.01C510.27 147.2 520.15 124.41 532.23 105.04C534.06 102.11 540.31 95.2899 541.04 92.8499C541.44 91.5099 540.91 90.9899 539.57 91.3799C534.67 92.8399 522.6 100.45 517.74 103.55C471.11 133.3 436.93 182.69 436.06 239.36C464.63 228.92 493.93 224.54 523.3 234.62C618.75 267.37 645.13 408.89 596.86 489.67C586.86 506.41 572.61 516.86 563.04 530.85C557.56 538.86 555.59 547.89 548.02 556.83C546.14 559.06 537.06 566.79 536.7 567.62C535.24 571.01 538.6 574.75 539.06 578.85C543.45 618.29 515.32 666.12 486.07 690.87C485.17 691.63 479.73 696.12 479.06 695.35C478.17 686.57 481.06 677.51 480.1 668.81C479.93 667.3 480 666.33 478.55 665.38C467.88 675.35 455.87 687.71 441.06 690.35L445.05 664.36C444.25 663.43 430.56 675.38 426.58 675.44C420.92 675.52 411.1 666.12 406.07 663.36C405.17 664.56 409.94 684.21 410.05 687.88C410.1 689.47 410.77 690.66 408.56 690.37C403.77 689.73 388.77 679.8 384.58 676.34C383.1 675.12 373.25 664.03 372.06 665.37C372.26 672.19 371.79 679.08 372.01 685.91C372.12 689.18 374.64 692.95 371.55 695.35C338.16 669.57 308.84 621.3 313.02 577.84C313.26 575.32 314.91 573.61 315.05 571.8C315.45 566.45 304.63 558.08 301.22 553.7C295.38 546.18 292.48 536.46 287.49 529.43C280.37 519.42 268.47 509.79 260.62 498.3C222.23 442.07 221.45 362.76 253.88 303.7C282.2 252.12 330.79 217.9 392.06 231.87C400.29 233.75 407.97 237.75 416.05 239.38L416.03 239.36ZM148.05 298.36C149.92 298.66 150.93 297.06 152.06 295.89C155.92 291.92 159.7 286.38 163.52 282.35C187.23 257.31 213.55 234.67 245.04 219.87C245.78 219.4 246.1 218.76 246.1 217.88C246.1 215.44 229.93 201.19 226.96 198.95C194.72 174.66 145.2 181.95 137.28 226.1C132.98 250.06 138.39 276.39 148.06 298.36H148.05ZM659.83 185.66C635.87 187.37 619.66 200.96 605.03 218.85C634.69 233.6 662.85 254.24 685.54 278.35C690.7 283.84 695.42 290.91 700.62 296.27C701.4 297.08 702.02 298.71 703.51 298.36C724.75 256.06 724.76 181.04 659.82 185.66H659.83ZM566.05 495.36C593.62 463.88 603.95 413.95 598.91 372.99C591.5 312.77 539.87 239.14 471.81 249.64C454.57 252.3 440.25 260.18 425.69 269.16C331.68 202.78 247.35 310.39 251.99 401.91C253.69 435.31 264.42 469.4 285.54 495.36C291.76 470.17 316.01 455.81 340.86 454.2C342.79 445.99 342.44 438.4 352.22 436.05C369.21 431.98 383.5 444.02 398.52 449.38C415.37 455.4 431.17 456.42 448.48 451.3C465.03 446.41 483.6 430.16 501.28 436.63C508.95 439.44 509.83 446.91 510.98 453.93C536.19 456 560.02 469.29 566.05 495.37V495.36ZM347.83 475.58C310.7 475.2 295.15 503.76 314.23 535.66C328.24 559.09 356.45 569.21 382.01 558.84C388.73 556.11 406.99 544.35 407.13 536.89C407.62 509.33 358.27 498.95 347.83 475.58ZM504.74 475.53C500.1 480.42 496.69 485.84 491.51 490.33C476.94 502.97 443.09 515 444.95 537.86C445.63 546.21 468.51 558.67 476.06 560.83C496.05 566.54 517.27 560.37 531.01 544.83C557.55 514.8 548.5 475.25 504.74 475.52V475.53ZM517.04 580.36C482.7 593.99 448.79 576.54 425.54 551.38C403.41 577.37 368.86 593.39 335.04 580.36V602.86C335.04 606.99 340.66 622.71 342.57 627.33C344.78 632.65 347.91 638.98 351.54 643.36C352.52 637 353.6 630.7 355.76 624.59C356.39 622.82 358.33 615.89 360.52 616.37C361.61 616.61 371 632.2 373.05 634.85C375.71 638.28 380.71 644.34 384.02 646.88C385.02 647.65 385.29 648.82 387.02 648.37C386.91 637.33 386.61 626.67 389 615.83C389.3 614.47 388.16 612.91 390.5 613.4C392.84 613.89 395.71 619.93 397.62 622.27C406.24 632.83 415.02 643.58 426.53 651.13C439.67 640.35 451.4 627.74 460.51 613.35L463.03 613.95L465.02 648.37C466.09 649.58 473.99 640.99 474.99 639.85C478.03 636.37 490.13 616.69 491.53 616.38C492.93 616.07 493.28 617.13 493.82 618.07C496.35 622.45 498.82 634.5 500 639.91C500.3 641.29 499.13 642.81 501.5 642.37C502.69 641.78 508.58 629.6 509.5 627.36C511.26 623.08 517.01 606.49 517.01 602.87V580.37L517.04 580.36Z" fill="white"/>
<path d="M415.81 233.57C407.73 231.95 400.05 227.94 391.82 226.06C330.55 212.09 281.97 246.31 253.64 297.89C221.21 356.96 222 436.26 260.38 492.49C268.23 503.98 280.13 513.61 287.25 523.62C292.25 530.65 295.14 540.36 300.98 547.89C304.38 552.27 315.21 560.64 314.81 565.99C314.67 567.8 313.02 569.51 312.78 572.03C308.6 615.49 337.92 663.76 371.31 689.54C374.39 687.15 371.88 683.37 371.77 680.1C371.54 673.28 372.02 666.38 371.82 659.56C373.01 658.22 382.85 669.31 384.34 670.53C388.53 673.99 403.53 683.92 408.32 684.56C410.53 684.86 409.85 683.66 409.81 682.07C409.7 678.4 404.93 658.74 405.83 657.55C410.86 660.31 420.68 669.71 426.34 669.63C430.32 669.57 444.02 657.62 444.81 658.55L440.82 684.54C455.63 681.89 467.65 669.53 478.31 659.57C479.76 660.52 479.69 661.49 479.86 663C480.81 671.7 477.93 680.76 478.82 689.54C479.49 690.31 484.93 685.82 485.83 685.06C515.08 660.31 543.21 612.49 538.82 573.04C538.36 568.94 535.01 565.19 536.46 561.81C536.82 560.97 545.9 553.24 547.78 551.02C555.35 542.08 557.32 533.05 562.8 525.04C572.37 511.04 586.62 500.6 596.62 483.86C644.89 403.07 618.5 261.56 523.06 228.81C493.69 218.73 464.39 223.11 435.82 233.55C436.69 176.89 470.88 127.5 517.5 97.7397C522.36 94.6397 534.43 87.0297 539.33 85.5697C540.67 85.1697 541.2 85.6997 540.8 87.0397C540.07 89.4897 533.82 96.2997 531.99 99.2297C519.9 118.6 510.03 141.39 506.96 164.2C505.51 174.96 506.09 185.8 504.83 196.56C515.1 188.72 524.76 180 535.51 172.75C573.59 147.03 618.7 131.84 665.03 138.85C671.93 139.89 681.07 141.26 686.82 145.06C638.96 153.56 597.88 181.45 572.82 223.04C584.49 228.42 596.53 232.88 607.84 239.04C682.56 279.7 728.47 360.25 747.83 441.05C747.1 442.53 745.38 440.9 744.51 440.37C739.14 437.13 733.5 431.55 728.13 427.75C708.74 414.02 688.24 401.26 664.82 395.57C663.56 396.8 675.41 411.8 676.84 414.04C705.26 458.34 719.21 516.48 716.85 569.11C716.48 577.42 713.97 586.08 714.8 594.57C713.06 594.31 713.1 592.54 712.53 591.35C701.15 567.8 696.5 549.43 679.22 527.66C677.66 525.7 675.37 521.93 672.81 521.58C673.92 528.01 675.21 534.57 675.8 541.08C680.83 596.87 675.73 652.37 653.99 704.25C646.35 722.49 635.95 738.73 625.79 755.56L623.8 755.06C623.44 753.35 624.78 751.41 624.72 749.97C623.83 728.93 620.55 707.37 613.32 687.58C609.65 696.72 608.22 706.62 604.83 716.09C574.62 800.69 476.22 808.13 426.33 874.51C423.25 873.48 422.76 870.44 420.79 868.09C371.46 809.46 280.79 798.88 249.05 721.83C244.6 711.03 242.44 699.48 238.31 688.59C234.02 688.62 224.65 747.96 226.8 754.57C220.9 748.38 215.89 739.81 211.64 732.24C176.46 669.63 166.59 593.05 178.81 522.58C176.85 522.24 175.96 523.89 174.84 525.1C158.25 543.14 146.46 570.71 138.33 593.59C135 595.73 136.68 591.7 136.54 590.38C130.64 536.51 139.13 482.76 162.94 434.19L186.81 395.57C155.39 403.11 129.15 422.91 104.31 442.56C103.5 442.7 103.81 441.72 103.79 441.05C103.59 435.67 111.54 411.6 113.78 405.03C140.97 325.19 196.91 251.7 278.81 223.55C279.25 222.03 278.3 221.86 277.81 221.06C255.94 185.47 221.76 160.63 181.8 149.07C176.82 147.63 170.75 147.3 166.19 145.67C164.77 145.16 164.51 145.97 164.8 143.57C224.32 126.01 284.88 146.81 331.7 184.16C335.9 187.51 339.93 192.11 343.8 195.06C344.8 195.83 345.07 197 346.8 196.55C345.63 186.12 345.99 175.63 344.66 165.2C341.69 141.9 331.96 119.01 319.61 99.2497C317.55 95.9497 311.8 90.2197 310.81 87.0397C310.4 85.7097 310.94 85.1797 312.28 85.5697C316.38 86.7997 328.38 94.4197 332.72 97.1297C380.87 127.21 413.93 175.51 415.79 233.55L415.81 233.57Z" fill="#1D1D1B"/>
<path d="M565.83 489.56C559.8 463.48 535.96 450.19 510.76 448.12C509.61 441.1 508.73 433.63 501.06 430.82C483.38 424.36 464.81 440.6 448.26 445.49C430.95 450.61 415.15 449.59 398.3 443.57C383.29 438.21 368.99 426.16 352 430.24C342.22 432.59 342.56 440.18 340.64 448.39C315.79 450 291.54 464.37 285.32 489.55C264.2 463.59 253.47 429.5 251.77 396.1C247.12 304.58 331.45 196.97 425.47 263.35C440.03 254.37 454.35 246.49 471.59 243.83C539.65 233.33 591.27 306.96 598.69 367.18C603.73 408.14 593.4 458.07 565.83 489.55V489.56ZM369.81 394.57C372.1 391.47 358.07 360.41 355.34 355.55C350.7 347.31 342.46 335.63 333.04 332.85C316.12 327.87 296.46 343.98 279.82 345.57C279.55 347.6 279.64 347.21 281.07 347.82C285.74 349.8 295.11 349.79 299.21 352.68C301.17 354.07 304.32 360.54 306.78 363.11C316.24 373.01 330.69 377.46 344.11 375.77L369.82 394.56L369.81 394.57ZM571.82 345.57C554.06 343.44 533.72 325.98 515.77 334.01C503.11 339.68 492.93 360.86 488.05 373.29C485.5 379.79 482.49 387.75 481.83 394.56L506.07 376.32C521.46 376.32 533.52 374.3 544.72 362.96C546.88 360.77 551.24 353.39 552.54 352.52C556.05 350.16 565.81 349.37 570.43 347.67C571.81 347.16 572.14 348.03 571.83 345.57H571.82Z" fill="#1D1D1B"/>
<path d="M516.82 574.57V597.07C516.82 600.68 511.07 617.28 509.31 621.56C508.39 623.79 502.5 635.98 501.31 636.57C498.94 637.01 500.11 635.49 499.81 634.11C498.63 628.7 496.17 616.66 493.63 612.27C493.09 611.33 492.72 610.28 491.34 610.58C489.96 610.88 477.84 630.57 474.8 634.05C473.8 635.19 465.91 643.78 464.83 642.57L462.84 608.15L460.32 607.55C451.21 621.94 439.48 634.55 426.34 645.33C414.83 637.78 406.05 627.03 397.43 616.47C395.52 614.13 392.64 608.08 390.31 607.6C387.98 607.12 389.11 608.67 388.81 610.03C386.42 620.87 386.72 631.53 386.83 642.57C385.1 643.02 384.83 641.85 383.83 641.08C380.52 638.54 375.52 632.49 372.86 629.05C370.81 626.4 361.42 610.81 360.33 610.57C358.14 610.1 356.2 617.02 355.57 618.79C353.41 624.89 352.33 631.2 351.35 637.56C347.71 633.18 344.59 626.85 342.38 621.53C340.46 616.91 334.85 601.19 334.85 597.06V574.56C368.67 587.58 403.22 571.57 425.35 545.58C448.6 570.74 482.51 588.19 516.85 574.56L516.82 574.57Z" fill="#1D1D1B"/>
<path d="M147.83 292.56C138.16 270.59 132.75 244.26 137.05 220.3C144.97 176.15 194.49 168.86 226.73 193.15C229.7 195.39 245.87 209.63 245.87 212.08C245.87 212.96 245.55 213.6 244.81 214.07C213.32 228.87 187 251.52 163.29 276.55C159.47 280.58 155.69 286.12 151.83 290.09C150.7 291.26 149.68 292.87 147.82 292.56H147.83Z" fill="#1D1D1B"/>
<path d="M659.62 179.86C724.55 175.23 724.55 250.26 703.31 292.56C701.82 292.9 701.2 291.27 700.42 290.47C695.22 285.11 690.5 278.04 685.34 272.55C662.65 248.44 634.48 227.79 604.83 213.05C619.45 195.17 635.67 181.57 659.63 179.86H659.62Z" fill="#1D1D1B"/>
<path d="M504.52 469.73C548.29 469.46 557.34 509.01 530.79 539.04C517.05 554.58 495.84 560.75 475.84 555.04C468.29 552.88 445.41 540.43 444.73 532.07C442.87 509.2 476.71 497.18 491.29 484.54C496.47 480.05 499.88 474.63 504.52 469.74V469.73ZM516.56 480.74C507.42 482.6 510.59 496.48 518.34 496.16C519.28 496.12 524.91 493.29 525.33 492.59C528.49 487.4 523.27 479.38 516.56 480.75V480.74ZM486.54 499.76C477.93 502.33 480.66 517.91 491.89 514.13C500.29 511.3 496.18 496.88 486.54 499.76ZM524.56 501.72C515.77 503.28 517.55 518.75 528.1 516.36C537.87 514.15 534.26 499.99 524.56 501.72ZM516.56 526.74C510.28 528.02 508.54 536.6 514.32 540.56C526.15 548.65 531.02 523.79 516.56 526.74ZM482.53 529.78C474 531.74 477.22 547.71 487.88 544.12C495.2 541.65 494.04 527.14 482.53 529.78Z" fill="#1D1D1B"/>
<path d="M347.62 469.78C358.06 493.15 407.41 503.52 406.92 531.09C406.79 538.55 388.53 550.32 381.8 553.04C356.24 563.41 328.03 553.29 314.02 529.86C294.94 497.96 310.49 469.4 347.62 469.78ZM333.56 480.72C323.85 482.49 325.79 497.15 335.17 496.3C346.41 495.27 343 479.01 333.56 480.72ZM361.53 499.78C350.22 503.15 360.69 522.27 369.85 512.1C375.04 506.33 369.42 497.43 361.53 499.78ZM321.14 503.88C315.22 510.36 322.33 520.13 330.37 515.61C340.13 510.13 328.69 495.62 321.14 503.88ZM332.56 526.74C324.05 528.47 325.53 544.31 337.06 541.33C346.34 538.94 343.29 524.56 332.56 526.74ZM362.12 531.85C356.64 538.67 366.28 550.38 373.84 542.09C380.79 534.48 368.21 524.27 362.12 531.85Z" fill="#1D1D1B"/>
<path d="M369.81 394.57L344.1 375.78C330.68 377.47 316.23 373.02 306.77 363.12C304.31 360.55 301.17 354.07 299.2 352.69C295.11 349.8 285.74 349.81 281.06 347.83C279.63 347.22 279.54 347.61 279.81 345.58C296.45 343.99 316.11 327.88 333.03 332.86C342.45 335.63 350.7 347.32 355.33 355.56C358.07 360.42 372.09 391.48 369.8 394.58L369.81 394.57Z" fill="white"/>
<path d="M571.82 345.57C572.13 348.03 571.8 347.16 570.42 347.67C565.8 349.37 556.04 350.17 552.53 352.52C551.24 353.39 546.88 360.77 544.71 362.96C533.51 374.3 521.46 376.32 506.06 376.32L481.82 394.56C482.49 387.76 485.49 379.8 488.04 373.29C492.92 360.86 503.09 339.67 515.76 334.01C533.71 325.98 554.05 343.43 571.81 345.57H571.82Z" fill="white"/>
<path d="M516.56 480.74C523.27 479.37 528.49 487.39 525.33 492.58C524.9 493.29 519.28 496.12 518.34 496.15C510.59 496.47 507.42 482.6 516.56 480.73V480.74Z" fill="white"/>
<path d="M516.56 526.74C531.02 523.79 526.15 548.65 514.32 540.56C508.54 536.6 510.28 528.02 516.56 526.74Z" fill="white"/>
<path d="M486.54 499.76C496.18 496.88 500.29 511.3 491.89 514.13C480.66 517.91 477.93 502.34 486.54 499.76Z" fill="white"/>
<path d="M482.53 529.78C494.04 527.14 495.2 541.65 487.88 544.12C477.22 547.71 474 531.74 482.53 529.78Z" fill="white"/>
<path d="M524.56 501.72C534.26 500 537.87 514.15 528.1 516.36C517.55 518.74 515.77 503.28 524.56 501.72Z" fill="white"/>
<path d="M332.56 526.74C343.3 524.56 346.34 538.94 337.06 541.33C325.53 544.3 324.04 528.46 332.56 526.74Z" fill="white"/>
<path d="M333.56 480.72C343 479 346.41 495.27 335.17 496.3C325.78 497.16 323.85 482.49 333.56 480.72Z" fill="white"/>
<path d="M361.53 499.78C369.42 497.43 375.04 506.33 369.85 512.1C360.69 522.28 350.22 503.15 361.53 499.78Z" fill="white"/>
<path d="M362.12 531.85C368.22 524.27 380.79 534.48 373.84 542.09C366.28 550.38 356.64 538.67 362.12 531.85Z" fill="white"/>
<path d="M321.14 503.88C328.69 495.63 340.13 510.13 330.37 515.61C322.33 520.12 315.22 510.36 321.14 503.88Z" fill="white"/>
</svg>
